<svg width="360" height="360" viewBox="0 0 360 360" fill="none" xmlns="http://www.w3.org/2000/svg">
<path d="M195.901 87.5035C202.116 86.8492 203.398 71.1466 203.261 63.377L174.637 85.0499C173.683 85.1863 172.51 85.3771 175.455 85.0499C178.399 84.7228 187.859 82.4601 192.221 81.3696C191.893 85.9496 194.538 87.3672 195.901 87.5035Z" fill="black"/>
<path fill-rule="evenodd" clip-rule="evenodd" d="M208.169 50.7005C208.851 51.382 210.132 55.9347 209.805 68.6931C209.669 71.6918 208.824 79.8158 206.534 88.3214C211.85 93.3647 223.054 104.351 225.344 107.95C228.207 112.448 240.474 116.128 243.746 116.128H252.742C253.423 122.262 252.578 136.656 243.746 145.162C242.383 146.388 237.694 149.087 229.842 150.069H197.946C197.128 151.841 198.682 156.939 211.441 163.154C228.343 174.059 262.72 196.604 265.01 199.548C274.006 206.364 292.08 224.983 292.407 244.939C292.816 252.436 292.08 269.229 285.865 276.426C283.82 279.561 277.114 287.058 266.645 291.965C257.24 296.463 232.623 305.868 209.396 307.504C185.542 311.048 123.768 311.92 67.5 287.058C70.3625 269.883 86.9647 234.879 130.474 232.262H150.102C159.78 232.535 183.961 235.615 203.262 245.757C227.389 258.433 267.463 267.838 271.143 262.931C263.783 262.931 244.155 260.478 224.526 250.664C199.991 238.396 187.314 234.716 186.496 234.716C185.679 234.716 188.95 208.545 193.448 205.273C191.812 205.546 188.378 207.4 186.088 210.998C185.361 212.179 183.522 215.193 182.068 221.221C181.341 224.235 180.608 227.9 179.954 232.262V233.489C174.092 231.308 161.143 226.946 156.236 226.946C155.691 201.457 161.879 148.924 190.995 142.708H227.389C232.841 141.345 243.746 136.084 243.746 125.942C242.383 126.76 237.203 128.396 227.389 128.396H184.043C169.867 128.396 138.734 134.939 127.612 161.11H136.608C131.428 167.516 120.824 184.255 119.842 199.957L143.969 209.362C143.423 212.77 142.251 220.567 141.924 224.493C134.7 223.947 119.106 223.184 114.526 224.493C113.163 201.457 111.664 151.95 116.571 138.21C117.661 129.214 124.013 106.968 140.697 89.9571C144.241 86.1404 154.355 77.5258 166.459 73.6001C179.272 65.4217 205.552 49.3919 208.169 50.7005ZM79.3594 280.924C84.2664 263.34 107.984 231.199 163.597 243.303C156.918 246.574 143.151 254.998 141.516 262.522C153.92 263.34 179.382 266.203 181.999 271.11C174.366 272.746 158.036 277.734 153.783 284.604C165.369 289.239 188.869 299.08 190.177 301.37C174.502 303.415 130.393 302.188 79.3594 280.924Z" fill="black"/>
</svg>
