<svg width="88" height="36" viewBox="0 0 88 36" fill="none" xmlns="http://www.w3.org/2000/svg">
	<path d="M43.0114 24V12.3637H50.7159V14.3921H45.4716V17.1648H50.2045V19.1932H45.4716V24H43.0114Z" fill="black" />
	<path d="M63.0639 18.1818C63.0639 19.4508 62.8234 20.5303 62.3423 21.4205C61.865 22.3106 61.2135 22.9905 60.3878 23.4602C59.5658 23.9262 58.6416 24.1591 57.615 24.1591C56.581 24.1591 55.6529 23.9243 54.831 23.4546C54.009 22.9849 53.3594 22.3049 52.8821 21.4148C52.4048 20.5246 52.1662 19.447 52.1662 18.1818C52.1662 16.9129 52.4048 15.8333 52.8821 14.9432C53.3594 14.053 54.009 13.375 54.831 12.9091C55.6529 12.4394 56.581 12.2046 57.615 12.2046C58.6416 12.2046 59.5658 12.4394 60.3878 12.9091C61.2135 13.375 61.865 14.053 62.3423 14.9432C62.8234 15.8333 63.0639 16.9129 63.0639 18.1818ZM60.5696 18.1818C60.5696 17.3599 60.4465 16.6667 60.2003 16.1023C59.9578 15.5379 59.615 15.1099 59.1719 14.8182C58.7287 14.5265 58.2097 14.3807 57.615 14.3807C57.0203 14.3807 56.5014 14.5265 56.0582 14.8182C55.615 15.1099 55.2703 15.5379 55.0241 16.1023C54.7817 16.6667 54.6605 17.3599 54.6605 18.1818C54.6605 19.0038 54.7817 19.697 55.0241 20.2614C55.2703 20.8258 55.615 21.2538 56.0582 21.5455C56.5014 21.8371 57.0203 21.983 57.615 21.983C58.2097 21.983 58.7287 21.8371 59.1719 21.5455C59.615 21.2538 59.9578 20.8258 60.2003 20.2614C60.4465 19.697 60.5696 19.0038 60.5696 18.1818Z" fill="black" />
	<path d="M64.8864 24V12.3637H69.4773C70.3561 12.3637 71.1061 12.5208 71.7273 12.8352C72.3523 13.1458 72.8276 13.5871 73.1534 14.1591C73.4829 14.7273 73.6477 15.3958 73.6477 16.1648C73.6477 16.9375 73.481 17.6023 73.1477 18.1591C72.8144 18.7121 72.3314 19.1364 71.6989 19.4318C71.0701 19.7273 70.3087 19.875 69.4148 19.875H66.3409V17.8977H69.017C69.4867 17.8977 69.8769 17.8333 70.1875 17.7046C70.4981 17.5758 70.7292 17.3826 70.8807 17.125C71.036 16.8674 71.1136 16.5474 71.1136 16.1648C71.1136 15.7784 71.036 15.4527 70.8807 15.1875C70.7292 14.9224 70.4962 14.7216 70.1818 14.5852C69.8712 14.4451 69.4792 14.375 69.0057 14.375H67.3466V24H64.8864ZM71.1704 18.7046L74.0625 24H71.3466L68.517 18.7046H71.1704Z" fill="black" />
	<path d="M77.8466 12.3637V24H75.3864V12.3637H77.8466Z" fill="black" />
	<path d="M79.8707 24V12.3637H87.5753V14.3921H82.331V17.1648H87.0639V19.1932H82.331V24H79.8707Z" fill="black" />
	<path d="M19.5901 8.75035C20.2117 8.68492 20.3398 7.11466 20.3261 6.33771L17.4637 8.505C17.3683 8.51863 17.251 8.53771 17.5455 8.505C17.8399 8.47228 18.7859 8.24601 19.2221 8.13697C19.1893 8.59496 19.4538 8.73672 19.5901 8.75035Z" fill="black" />
	<path fill-rule="evenodd" clip-rule="evenodd" d="M20.8169 5.07005C20.8851 5.1382 21.0132 5.59347 20.9805 6.86931C20.9669 7.16918 20.8824 7.98158 20.6534 8.83214C21.185 9.33647 22.3054 10.4351 22.5344 10.795C22.8207 11.2448 24.0474 11.6128 24.3746 11.6128H25.2742C25.3424 12.2262 25.2578 13.6656 24.3746 14.5162C24.2383 14.6388 23.7694 14.9087 22.9842 15.0069H19.7946C19.7128 15.1841 19.8682 15.6939 21.1441 16.3154C22.8343 17.4059 26.272 19.6604 26.501 19.9548C27.4006 20.6364 29.208 22.4983 29.2407 24.4939C29.2816 25.2436 29.208 26.9229 28.5865 27.6426C28.382 27.9561 27.7114 28.7058 26.6645 29.1965C25.724 29.6463 23.2623 30.5868 20.9396 30.7504C18.5542 31.1048 12.3768 31.192 6.75 28.7058C7.03625 26.9883 8.69647 23.4879 13.0474 23.2262H15.0102C15.978 23.2535 18.3961 23.5615 20.3262 24.5757C22.7389 25.8433 26.7463 26.7838 27.1144 26.2931C26.3783 26.2931 24.4155 26.0478 22.4526 25.0664C19.9991 23.8396 18.7314 23.4716 18.6497 23.4716C18.5679 23.4716 18.895 20.8545 19.3448 20.5273C19.1813 20.5546 18.8378 20.74 18.6088 21.0998C18.5361 21.218 18.3522 21.5193 18.2068 22.1221C18.1341 22.4235 18.0608 22.79 17.9954 23.2262V23.3489C17.4093 23.1308 16.1143 22.6946 15.6236 22.6946C15.5691 20.1457 16.1879 14.8924 19.0995 14.2708H22.7389C23.2841 14.1345 24.3746 13.6084 24.3746 12.5942C24.2383 12.676 23.7203 12.8396 22.7389 12.8396H18.4043C16.9867 12.8396 13.8734 13.4939 12.7612 16.111H13.6608C13.1428 16.7516 12.0824 18.4255 11.9842 19.9957L14.3969 20.9362C14.3423 21.277 14.2251 22.0567 14.1924 22.4493C13.47 22.3947 11.9106 22.3184 11.4526 22.4493C11.3163 20.1457 11.1664 15.195 11.6571 13.821C11.7661 12.9214 12.4013 10.6968 14.0697 8.99571C14.4241 8.61404 15.4355 7.75258 16.6459 7.36002C17.9272 6.54217 20.5552 4.93919 20.8169 5.07005ZM7.93594 28.0924C8.42664 26.334 10.7984 23.1199 16.3597 24.3303C15.6918 24.6574 14.3151 25.4998 14.1516 26.2522C15.392 26.334 17.9382 26.6203 18.1999 27.111C17.4366 27.2746 15.8036 27.7734 15.3783 28.4604C16.5369 28.9239 18.8869 29.908 19.0177 30.137C17.4502 30.3415 13.0393 30.2188 7.93594 28.0924Z" fill="black" />
</svg>
